<svg width="60" height="60" viewBox="0 0 60 60" fill="none" xmlns="http://www.w3.org/2000/svg">
<path fill-rule="evenodd" clip-rule="evenodd" d="M52.0126 29.5126C52.0126 41.9384 41.9384 52.0126 29.5126 52.0126C17.0847 52.0126 7.01257 41.9384 7.01257 29.5126C7.01257 17.0847 17.0847 7.01257 29.5126 7.01257C41.9384 7.01257 52.0126 17.0847 52.0126 29.5126V29.5126Z" stroke="black" stroke-width="2" stroke-linecap="round" stroke-linejoin="round"/>
<path fill-rule="evenodd" clip-rule="evenodd" d="M44.1865 32.4474C44.1865 39.575 37.6165 46.143 29.5126 46.143C21.4087 46.143 14.8387 39.575 14.8387 32.4474H44.1865V32.4474Z" stroke="black" stroke-width="2" stroke-linecap="round" stroke-linejoin="round"/>
<path d="M16.7952 25.5995C16.7952 20.4284 24.6213 20.4225 24.6213 25.5995" stroke="black" stroke-width="2" stroke-linecap="round" stroke-linejoin="round"/>
<path d="M42.23 25.5995C42.23 20.4284 34.4039 20.4225 34.4039 25.5995" stroke="black" stroke-width="2" stroke-linecap="round" stroke-linejoin="round"/>
</svg>
